# xmcd
#
# Track frame offsets: 
#        150
#        23215
#        47227
#        62238
#        76756
#        100002
#        116802
#        133304
#        147789
#        163541
#        181503
#        201399
#
# Disc length: 2905 seconds
#
# Revision: 0
# Processed by: cddbd v1.5.2PL0 Copyright (c) Steve Scherf et al.
# Submitted via: ExactAudioCopy v1.0b4
#
DISCID=a30b570c
DTITLE=Sugar Blue - Voyage
DYEAR=2016
DGENRE=Blues
TTITLE0=On My Way (Sarah's Song)
TTITLE1=One
TTITLE2=Sugar Blue Boogie
TTITLE3=New York City
TTITLE4=12 Steps
TTITLE5=Love Is Everywhere
TTITLE6=Mercedes Blues
TTITLE7=Sunshine
TTITLE8=Cyber Blues
TTITLE9=Mary Ann
TTITLE10=Life On The Run
TTITLE11=Time
EXTD=
EXTT0=
EXTT1=
EXTT2=
EXTT3=
EXTT4=
EXTT5=
EXTT6=
EXTT7=
EXTT8=
EXTT9=
EXTT10=
EXTT11=
PLAYORDER=
